<svg xmlns="http://www.w3.org/2000/svg" version="1.1" width="80" height="80" shape-rendering="crispEdges" style="display: block; margin: 0 auto;">
  <g transform="translate(-1, 13)">
    <path fill="#131314" d="M37,7h6v1h-6z M35,8h2v1h-2z M38,8h1v1h-1z M41,8h1v1h-1z M43,8h2v1h-2z M50,8h4v1h-4z M34,9h1v1h-1z M36,9h8v1h-8z M45,9h1v1h-1z M48,9h2v1h-2z M54,9h1v3h-1z M33,10h3v1h-3z M38,10h1v1h-1z M41,10h1v1h-1z M44,10h4v1h-4z M33,11h1v1h-1z M36,11h8v1h-8z M46,11h1v1h-1z M31,12h3v1h-3z M46,12h3v1h-3z M51,12h3v1h-3z M29,13h2v1h-2z M34,13h2v1h-2z M44,13h2v1h-2z M49,13h2v1h-2z M28,14h1v1h-1z M36,14h8v1h-8z M51,14h1v1h-1z M27,15h1v1h-1z M52,15h1v1h-1z M26,16h1v1h-1z M53,16h1v1h-1z M25,17h1v1h-1z M54,17h1v1h-1z M24,18h1v2h-1z M55,18h1v2h-1z M23,20h1v1h-1z M36,20h8v1h-8z M56,20h1v1h-1z M21,21h3v1h-3z M34,21h2v1h-2z M44,21h2v1h-2z M56,21h3v1h-3z M20,22h1v2h-1z M24,22h1v6h-1z M32,22h2v1h-2z M37,22h6v1h-6z M46,22h2v1h-2z M55,22h1v6h-1z M59,22h1v2h-1z M31,23h1v1h-1z M35,23h2v1h-2z M43,23h2v1h-2z M48,23h1v1h-1z M19,24h1v9h-1z M30,24h1v2h-1z M33,24h2v1h-2z M38,24h4v1h-4z M45,24h2v1h-2z M49,24h1v2h-1z M60,24h1v4h-1z M32,25h1v1h-1z M35,25h3v1h-3z M42,25h3v1h-3z M47,25h1v1h-1z M29,26h1v2h-1z M31,26h2v1h-2z M34,26h3v1h-3z M43,26h3v1h-3z M47,26h2v1h-2z M50,26h1v2h-1z M31,27h1v1h-1z M33,27h1v2h-1z M37,27h1v1h-1z M42,27h1v1h-1z M46,27h1v2h-1z M48,27h1v1h-1z M23,28h1v7h-1z M28,28h1v2h-1z M30,28h1v2h-1z M38,28h1v1h-1z M41,28h1v1h-1z M49,28h1v2h-1z M51,28h1v2h-1z M56,28h1v7h-1z M60,28h3v1h-3z M32,29h2v1h-2z M39,29h2v2h-2z M46,29h2v1h-2z M60,29h1v2h-1z M63,29h1v1h-1z M27,30h1v1h-1z M29,30h1v1h-1z M32,30h1v1h-1z M34,30h1v1h-1z M45,30h1v1h-1z M47,30h1v1h-1z M50,30h1v1h-1z M52,30h1v1h-1z M64,30h1v6h-1z M27,31h3v1h-3z M31,31h1v4h-1z M35,31h1v1h-1z M38,31h1v1h-1z M41,31h1v1h-1z M44,31h1v1h-1z M48,31h1v4h-1z M50,31h3v1h-3z M60,31h2v3h-2z M27,32h1v2h-1z M36,32h2v2h-2z M42,32h2v2h-2z M52,32h1v2h-1z M18,33h2v1h-2z M17,34h1v5h-1z M19,34h1v3h-1z M27,34h3v1h-3z M35,34h1v1h-1z M38,34h1v1h-1z M41,34h1v1h-1z M44,34h1v1h-1z M50,34h3v1h-3z M59,34h1v1h-1z M23,35h3v1h-3z M27,35h1v1h-1z M29,35h1v1h-1z M32,35h1v1h-1z M34,35h1v1h-1z M39,35h2v2h-2z M45,35h1v1h-1z M47,35h1v1h-1z M50,35h1v1h-1z M52,35h1v1h-1z M54,35h5v1h-5z M23,36h1v1h-1z M26,36h1v3h-1z M28,36h1v2h-1z M30,36h1v2h-1z M32,36h2v1h-2z M46,36h2v1h-2z M49,36h1v2h-1z M51,36h1v2h-1z M53,36h1v3h-1z M63,36h1v1h-1z M20,37h3v1h-3z M33,37h1v2h-1z M38,37h1v1h-1z M41,37h1v1h-1z M46,37h1v2h-1z M62,37h1v1h-1z M29,38h1v1h-1z M31,38h1v1h-1z M37,38h1v1h-1z M42,38h1v1h-1z M48,38h1v1h-1z M50,38h1v1h-1z M59,38h3v1h-3z M18,39h1v1h-1z M25,39h1v1h-1z M30,39h1v1h-1z M32,39h1v1h-1z M34,39h3v1h-3z M43,39h3v1h-3z M47,39h1v1h-1z M49,39h1v1h-1z M54,39h5v1h-5z M19,40h1v1h-1z M23,40h2v1h-2z M31,40h2v1h-2z M35,40h3v1h-3z M42,40h3v1h-3z M47,40h2v1h-2z M55,40h1v2h-1z M20,41h3v1h-3z M24,41h1v1h-1z M32,41h3v1h-3z M38,41h4v1h-4z M45,41h3v1h-3z M25,42h1v1h-1z M35,42h2v1h-2z M43,42h2v1h-2z M54,42h1v1h-1z M26,43h1v1h-1z M37,43h6v1h-6z M53,43h1v1h-1z M27,44h2v1h-2z M51,44h2v1h-2z M29,45h6v1h-6z M45,45h6v1h-6z M35,46h10v1h-10z" /><path fill="#52443B" d="M37,8h1v1h-1z M39,8h2v1h-2z M42,8h1v1h-1z M35,9h1v1h-1z M44,9h1v1h-1z M35,33h1v1h-1z M38,33h4v1h-4z M44,33h1v1h-1z M33,34h2v1h-2z M36,34h2v1h-2z M39,34h2v1h-2z M42,34h2v1h-2z M45,34h2v1h-2z M33,35h1v1h-1z M35,35h4v1h-4z M41,35h4v1h-4z M46,35h1v1h-1z M34,36h5v1h-5z M41,36h5v1h-5z M34,37h4v1h-4z M39,37h2v1h-2z M42,37h4v1h-4z M34,38h3v1h-3z M38,38h4v1h-4z M43,38h3v1h-3z M37,39h6v1h-6z M38,40h4v1h-4z" /><path fill="#988356" d="M50,9h2v1h-2z M49,10h5v1h-5z M35,11h1v1h-1z M44,11h1v1h-1z M47,11h3v1h-3z M35,12h2v1h-2z M43,12h2v1h-2z M36,13h1v1h-1z M43,13h1v1h-1z M39,21h3v1h-3z M22,22h1v1h-1z M36,22h1v1h-1z M43,22h2v1h-2z M57,22h1v1h-1z M21,23h2v1h-2z M33,23h2v1h-2z M37,23h6v1h-6z M45,23h2v1h-2z M57,23h2v1h-2z M21,24h1v4h-1z M31,24h2v1h-2z M36,24h2v1h-2z M42,24h2v1h-2z M47,24h1v1h-1z M58,24h1v4h-1z M31,25h1v1h-1z M34,25h1v1h-1z M45,25h1v1h-1z M48,25h1v1h-1z M30,26h1v1h-1z M33,26h1v1h-1z M46,26h1v1h-1z M49,26h1v1h-1z M32,27h1v1h-1z M47,27h1v1h-1z M20,28h2v2h-2z M31,28h2v1h-2z M47,28h2v1h-2z M58,28h2v2h-2z M31,29h1v1h-1z M48,29h1v1h-1z M62,29h1v1h-1z M20,30h1v7h-1z M30,30h2v1h-2z M48,30h2v1h-2z M59,30h1v4h-1z M63,30h1v1h-1z M30,31h1v1h-1z M49,31h1v1h-1z M29,32h2v2h-2z M49,32h2v2h-2z M62,32h1v1h-1z M30,34h1v1h-1z M49,34h1v1h-1z M62,34h1v1h-1z M18,35h1v1h-1z M30,35h2v1h-2z M48,35h2v1h-2z M59,35h3v1h-3z M31,36h1v1h-1z M48,36h1v1h-1z M54,36h6v1h-6z M24,37h1v1h-1z M32,37h1v1h-1z M47,37h1v1h-1z M54,37h4v1h-4z M22,38h2v1h-2z M21,39h2v1h-2z M31,39h1v1h-1z M33,39h1v1h-1z M46,39h1v1h-1z M48,39h1v1h-1z M33,40h2v1h-2z M45,40h2v1h-2z M35,41h3v1h-3z M42,41h3v1h-3z M37,42h6v1h-6z" /><path fill="#C8AD72" d="M52,9h2v1h-2z M48,10h1v1h-1z M34,11h1v2h-1z M45,11h1v2h-1z M36,21h3v1h-3z M42,21h2v1h-2z M21,22h1v1h-1z M34,22h2v1h-2z M45,22h1v1h-1z M58,22h1v1h-1z M32,23h1v1h-1z M47,23h1v1h-1z M20,24h1v4h-1z M35,24h1v1h-1z M44,24h1v1h-1z M48,24h1v1h-1z M59,24h1v4h-1z M33,25h1v1h-1z M46,25h1v1h-1z M61,29h1v1h-1z M28,32h1v2h-1z M51,32h1v2h-1z M62,33h1v1h-1z M18,34h1v1h-1z M60,34h2v1h-2z M19,37h1v1h-1z M31,37h1v1h-1z M48,37h1v1h-1z M20,38h2v1h-2z M32,38h1v1h-1z M47,38h1v1h-1z" /><path fill="#43322A" d="M36,10h2v1h-2z M39,10h2v1h-2z M42,10h2v1h-2z M38,25h4v1h-4z M37,26h6v1h-6z M34,27h3v1h-3z M38,27h4v1h-4z M43,27h3v1h-3z M34,28h4v1h-4z M39,28h2v1h-2z M42,28h4v1h-4z M34,29h5v1h-5z M41,29h5v1h-5z M33,30h1v1h-1z M35,30h4v1h-4z M41,30h4v1h-4z M46,30h1v1h-1z M32,31h3v1h-3z M36,31h2v1h-2z M39,31h2v1h-2z M42,31h2v1h-2z M45,31h3v1h-3z M32,32h4v1h-4z M38,32h4v1h-4z M44,32h4v1h-4z M32,33h3v1h-3z M45,33h3v1h-3z M32,34h1v1h-1z M47,34h1v1h-1z" /><path fill="#6F563B" d="M50,11h4v1h-4z M37,12h6v2h-6z M49,12h2v1h-2z M23,22h1v2h-1z M56,22h1v2h-1z M22,24h2v4h-2z M56,24h2v4h-2z M30,27h1v1h-1z M49,27h1v1h-1z M22,28h1v2h-1z M29,28h1v2h-1z M50,28h1v2h-1z M57,28h1v2h-1z M21,30h2v7h-2z M28,30h1v1h-1z M51,30h1v1h-1z M57,30h2v5h-2z M61,30h2v1h-2z M62,31h2v1h-2z M63,32h1v3h-1z M28,35h1v1h-1z M51,35h1v1h-1z M62,35h2v1h-2z M18,36h1v2h-1z M24,36h2v1h-2z M29,36h1v2h-1z M50,36h1v2h-1z M60,36h3v1h-3z M23,37h1v1h-1z M25,37h1v1h-1z M58,37h4v1h-4z M18,38h2v1h-2z M24,38h2v1h-2z M30,38h1v1h-1z M49,38h1v1h-1z M54,38h5v1h-5z M19,39h2v1h-2z M23,39h2v1h-2z M20,40h3v1h-3z" /><path fill="#F4BE9A" d="M31,13h2v1h-2z M47,13h2v1h-2z M29,14h4v1h-4z M47,14h4v1h-4z M28,15h2v1h-2z M50,15h2v1h-2z M27,16h2v1h-2z M51,16h2v1h-2z M26,17h2v1h-2z M52,17h2v1h-2z M25,18h2v2h-2z M53,18h2v2h-2z M24,20h2v2h-2z M54,20h2v2h-2z M25,22h1v1h-1z M54,22h1v1h-1z M25,40h1v1h-1z M54,40h1v1h-1z M25,41h2v1h-2z M53,41h2v1h-2z M26,42h1v1h-1z M53,42h1v1h-1z M27,43h2v1h-2z M51,43h2v1h-2z M29,44h2v1h-2z M49,44h2v1h-2z" /><path fill="#AB5642" d="M33,13h1v1h-1z M46,13h1v1h-1z M33,14h3v1h-3z M44,14h3v1h-3z M34,15h12v1h-12z M36,16h8v1h-8z M25,23h1v5h-1z M54,23h1v5h-1z M24,28h2v2h-2z M54,28h2v2h-2z M24,30h1v5h-1z M55,30h1v5h-1z M27,36h1v1h-1z M52,36h1v1h-1z M28,38h1v1h-1z M51,38h1v1h-1z M29,39h1v1h-1z M50,39h1v1h-1z M29,40h2v1h-2z M49,40h2v1h-2z M31,41h1v1h-1z M48,41h1v1h-1z M33,42h2v1h-2z M45,42h2v1h-2z M35,43h2v1h-2z M43,43h2v1h-2z" /><path fill="#C77D5D" d="M30,15h4v1h-4z M46,15h4v1h-4z M29,16h7v1h-7z M44,16h7v1h-7z M28,17h24v1h-24z M27,18h26v2h-26z M26,20h10v1h-10z M44,20h10v1h-10z M26,21h8v1h-8z M46,21h8v1h-8z M26,22h6v1h-6z M48,22h6v1h-6z M26,23h5v1h-5z M49,23h5v1h-5z M26,24h4v2h-4z M50,24h4v2h-4z M26,26h3v2h-3z M51,26h3v2h-3z M26,28h2v2h-2z M52,28h2v2h-2z M25,30h2v5h-2z M53,30h2v5h-2z M26,35h1v1h-1z M53,35h1v1h-1z M27,37h1v2h-1z M52,37h1v2h-1z M26,39h3v2h-3z M51,39h3v2h-3z M27,41h4v1h-4z M49,41h4v1h-4z M27,42h6v1h-6z M47,42h6v1h-6z M29,43h6v1h-6z M45,43h6v1h-6z M31,44h18v1h-18z M35,45h10v1h-10z" />
  </g>
</svg>