<svg width="621" height="621" viewBox="0 0 621 621" fill="none" xmlns="http://www.w3.org/2000/svg">
<path fill-rule="evenodd" clip-rule="evenodd" d="M595.347 432.635C586.714 452.682 576.028 471.636 563.554 489.233C559.365 495.142 554.975 500.897 550.393 506.489C540.987 517.97 530.773 528.764 519.838 538.784C466.88 587.31 397.016 617.682 320.1 620.045C316.88 620.144 313.647 620.194 310.402 620.194C307.076 620.194 303.762 620.141 300.461 620.037C223.641 617.618 153.868 587.259 100.966 538.784C90.0311 528.764 79.8169 517.97 70.4104 506.489C65.8277 500.896 61.4366 495.139 57.2473 489.229C44.7738 471.633 34.0887 452.68 25.4569 432.635C28.5758 425.392 31.9629 418.292 35.6056 411.346C39.5792 403.77 43.857 396.378 48.4227 389.187C51.2547 384.726 54.1975 380.343 57.2471 376.041C70.0342 358.003 84.7008 341.391 100.962 326.49C100.963 326.489 100.965 326.487 100.966 326.486C106.032 321.844 111.252 317.368 116.619 313.067C123.906 307.228 131.461 301.71 139.265 296.536C161.6 281.728 185.964 269.735 211.852 261.064C241.354 251.183 272.835 245.616 305.544 245.114C307.16 245.089 308.779 245.077 310.402 245.077C312.743 245.077 315.079 245.103 317.408 245.154C349.348 245.862 380.096 251.399 408.952 261.064C434.839 269.735 459.204 281.728 481.539 296.536C489.342 301.71 496.898 307.228 504.185 313.067C509.551 317.368 514.772 321.844 519.838 326.486C519.839 326.487 519.841 326.489 519.842 326.49C536.102 341.39 550.767 358 563.554 376.037C566.604 380.341 569.548 384.725 572.381 389.187C576.947 396.378 581.224 403.77 585.198 411.346C588.841 418.292 592.228 425.392 595.347 432.635ZM13.4552 399.727C4.90208 371.351 0.304932 341.261 0.304932 310.097C0.304932 301.874 0.62503 293.725 1.25343 285.663C2.39622 271.002 4.55865 256.627 7.66986 242.609C21.7851 179.01 55.4298 122.761 101.988 80.4774C157.047 30.4732 230.166 0 310.402 0C390.648 0 463.775 30.481 518.837 80.4967C565.384 122.778 599.021 179.02 613.134 242.609C616.245 256.627 618.407 271.002 619.55 285.663C620.179 293.725 620.499 301.874 620.499 310.097C620.499 341.261 615.901 371.351 607.348 399.727C589.695 366.074 566.49 335.792 538.948 310.097C538.213 309.411 537.474 308.728 536.732 308.048C531.261 303.034 525.622 298.199 519.826 293.553C519.697 291.903 519.549 290.258 519.383 288.619C515.212 247.553 499.214 209.984 474.847 179.373C436.361 131.024 377.001 100.031 310.402 100.031C243.803 100.031 184.442 131.024 145.957 179.373C120.617 211.206 104.327 250.564 100.978 293.553C95.1816 298.199 89.5428 303.034 84.0711 308.048C83.3295 308.728 82.5909 309.411 81.8554 310.097C54.3139 335.792 31.1081 366.074 13.4552 399.727ZM460.247 407.953C458.281 405.952 456.275 403.99 454.23 402.068C417.511 367.56 368.376 346.113 314.243 345.142C312.965 345.119 311.685 345.108 310.402 345.108C308.883 345.108 307.368 345.124 305.857 345.156C250.977 346.321 201.275 368.532 164.5 404.044C162.39 406.08 160.324 408.16 158.302 410.282C151.624 417.29 145.426 424.758 139.76 432.635C146.059 441.391 153.015 449.643 160.556 457.318C162.472 459.267 164.425 461.179 166.416 463.054C203.151 497.648 252.35 519.156 306.561 520.128C307.838 520.151 309.119 520.162 310.402 520.162C311.932 520.162 313.459 520.146 314.981 520.114C369.848 518.94 419.536 496.73 456.304 461.227C458.379 459.223 460.412 457.178 462.402 455.092C469.118 448.055 475.349 440.551 481.043 432.635C474.745 423.879 467.788 415.627 460.247 407.953Z" fill="black"/>
</svg>
